# xmcd
#
# Track frame offsets:
#	150
#	10562
#	22252
#	33265
#	46222
#	57045
#	70502
#	82580
#	96192
#	108875
#
# Disc length: 1620 seconds
# Revision: 3
# Processed by: cddbd v1.5.2PL0 Copyright (c) Steve Scherf et al.
# Submitted via: dBpowerAMP V12.0
#
DISCID=6506520a
DTITLE=Crystal Gale - Crystal Gale
DYEAR=1975
DGENRE=Country
TTITLE0=Wrong Road Again
TTITLE1=A Woman's Heart (Is A Handy Place To Be)
TTITLE2=Gonna Lay Me Down Beside My Memories
TTITLE3=When I Dream
TTITLE4=You
TTITLE5=Loving You So Long Now
TTITLE6=Beyond You
TTITLE7=Hands
TTITLE8=Counterfeit Love (I Know You've Got It)
TTITLE9=This Is My Year For Mexico
EXTD=
EXTT0=
EXTT1=
EXTT2=
EXTT3=
EXTT4=
EXTT5=
EXTT6=
EXTT7=
EXTT8=
EXTT9=
PLAYORDER=
